<svg width="97" height="96" viewBox="0 0 97 96" fill="none" xmlns="http://www.w3.org/2000/svg">
<path d="M0.5 48C0.5 21.4903 21.9903 0 48.5 0C75.0097 0 96.5 21.4903 96.5 48C96.5 74.5097 75.0097 96 48.5 96C21.9903 96 0.5 74.5097 0.5 48Z" fill="#96BB7C"/>
<path d="M29 40.8C28.9995 37.9007 30.1648 35.1229 32.2336 33.0917C34.3025 31.0604 37.1012 29.9463 40 30C43.4346 29.9818 46.712 31.4384 49 34C51.288 31.4384 54.5654 29.9818 58 30C60.8988 29.9463 63.6975 31.0604 65.7664 33.0917C67.8352 35.1229 69.0005 37.9007 69 40.8C69 51.512 56.242 59.6 49 66C41.774 59.546 29 51.52 29 40.8Z" fill="white"/>
</svg>
